<svg width="390" height="90" viewBox="0 0 390 90" fill="none" xmlns="http://www.w3.org/2000/svg">
<g clip-path="url(#clip0_126_2)">
<rect y="7" width="214" height="28" fill="#848484"/>
<rect x="214" y="28" width="176" height="7" fill="#848484"/>
<path d="M4.04545 90V43.4545H35.4091V51.5682H13.8864V62.6591H33.7955V70.7727H13.8864V81.8864H35.5V90H4.04545ZM82.1648 43.4545V90H73.6648L53.4148 60.7045H53.0739V90H43.233V43.4545H51.8693L71.9602 72.7273H72.3693V43.4545H82.1648ZM98.3182 90H87.7727L103.841 43.4545H116.523L132.568 90H122.023L110.364 54.0909H110L98.3182 90ZM97.6591 71.7045H122.568V79.3864H97.6591V71.7045ZM162.358 56.8409C162.176 55.0076 161.396 53.5833 160.017 52.5682C158.638 51.553 156.767 51.0455 154.403 51.0455C152.797 51.0455 151.441 51.2727 150.335 51.7273C149.229 52.1667 148.381 52.7803 147.79 53.5682C147.214 54.3561 146.926 55.25 146.926 56.25C146.896 57.0833 147.07 57.8106 147.449 58.4318C147.843 59.053 148.381 59.5909 149.062 60.0455C149.744 60.4848 150.532 60.8712 151.426 61.2045C152.32 61.5227 153.275 61.7955 154.29 62.0227L158.472 63.0227C160.502 63.4773 162.366 64.0833 164.062 64.8409C165.759 65.5985 167.229 66.5303 168.472 67.6364C169.714 68.7424 170.676 70.0455 171.358 71.5455C172.055 73.0455 172.411 74.7652 172.426 76.7045C172.411 79.553 171.684 82.0227 170.244 84.1136C168.82 86.1894 166.759 87.803 164.062 88.9545C161.381 90.0909 158.146 90.6591 154.358 90.6591C150.6 90.6591 147.328 90.0833 144.54 88.9318C141.767 87.7803 139.6 86.0758 138.04 83.8182C136.494 81.5455 135.684 78.7348 135.608 75.3864H145.131C145.237 76.947 145.684 78.25 146.472 79.2955C147.275 80.3258 148.343 81.1061 149.676 81.6364C151.025 82.1515 152.547 82.4091 154.244 82.4091C155.911 82.4091 157.358 82.1667 158.585 81.6818C159.828 81.197 160.79 80.5227 161.472 79.6591C162.153 78.7955 162.494 77.803 162.494 76.6818C162.494 75.6364 162.184 74.7576 161.562 74.0455C160.956 73.3333 160.063 72.7273 158.881 72.2273C157.714 71.7273 156.282 71.2727 154.585 70.8636L149.517 69.5909C145.593 68.6364 142.494 67.1439 140.222 65.1136C137.949 63.0833 136.82 60.3485 136.835 56.9091C136.82 54.0909 137.57 51.6288 139.085 49.5227C140.616 47.4167 142.714 45.7727 145.381 44.5909C148.047 43.4091 151.078 42.8182 154.472 42.8182C157.926 42.8182 160.941 43.4091 163.517 44.5909C166.108 45.7727 168.123 47.4167 169.562 49.5227C171.002 51.6288 171.744 54.0682 171.79 56.8409H162.358ZM179.045 90V43.4545H210.409V51.5682H188.886V62.6591H208.795V70.7727H188.886V81.8864H210.5V90H179.045ZM237.006 90V85.9091L252.369 69.0909C254.172 67.1212 255.657 65.4091 256.824 63.9545C257.991 62.4848 258.854 61.1061 259.415 59.8182C259.991 58.5152 260.278 57.1515 260.278 55.7273C260.278 54.0909 259.884 52.6742 259.097 51.4773C258.324 50.2803 257.263 49.3561 255.915 48.7045C254.566 48.053 253.051 47.7273 251.369 47.7273C249.581 47.7273 248.021 48.0985 246.688 48.8409C245.369 49.5682 244.347 50.5909 243.619 51.9091C242.907 53.2273 242.551 54.7727 242.551 56.5455H237.188C237.188 53.8182 237.816 51.4242 239.074 49.3636C240.331 47.303 242.044 45.697 244.21 44.5455C246.392 43.3939 248.839 42.8182 251.551 42.8182C254.278 42.8182 256.695 43.3939 258.801 44.5455C260.907 45.697 262.559 47.25 263.756 49.2045C264.953 51.1591 265.551 53.3333 265.551 55.7273C265.551 57.4394 265.241 59.1136 264.619 60.75C264.013 62.3712 262.953 64.1818 261.438 66.1818C259.938 68.1667 257.854 70.5909 255.188 73.4545L244.733 84.6364V85H266.369V90H237.006ZM290.938 90.6364C287.513 90.6364 284.597 89.7045 282.188 87.8409C279.778 85.9621 277.938 83.2424 276.665 79.6818C275.392 76.1061 274.756 71.7879 274.756 66.7273C274.756 61.697 275.392 57.4015 276.665 53.8409C277.953 50.2652 279.801 47.5379 282.21 45.6591C284.634 43.7651 287.544 42.8182 290.938 42.8182C294.331 42.8182 297.233 43.7651 299.642 45.6591C302.066 47.5379 303.915 50.2652 305.188 53.8409C306.475 57.4015 307.119 61.697 307.119 66.7273C307.119 71.7879 306.483 76.1061 305.21 79.6818C303.938 83.2424 302.097 85.9621 299.688 87.8409C297.278 89.7045 294.362 90.6364 290.938 90.6364ZM290.938 85.6364C294.331 85.6364 296.968 84 298.847 80.7273C300.725 77.4545 301.665 72.7879 301.665 66.7273C301.665 62.697 301.233 59.2652 300.369 56.4318C299.521 53.5985 298.294 51.4394 296.688 49.9545C295.097 48.4697 293.18 47.7273 290.938 47.7273C287.574 47.7273 284.945 49.3864 283.051 52.7045C281.157 56.0076 280.21 60.6818 280.21 66.7273C280.21 70.7576 280.634 74.1818 281.483 77C282.331 79.8182 283.551 81.9621 285.142 83.4318C286.748 84.9015 288.68 85.6364 290.938 85.6364ZM315.756 90V85.9091L331.119 69.0909C332.922 67.1212 334.407 65.4091 335.574 63.9545C336.741 62.4848 337.604 61.1061 338.165 59.8182C338.741 58.5152 339.028 57.1515 339.028 55.7273C339.028 54.0909 338.634 52.6742 337.847 51.4773C337.074 50.2803 336.013 49.3561 334.665 48.7045C333.316 48.053 331.801 47.7273 330.119 47.7273C328.331 47.7273 326.771 48.0985 325.438 48.8409C324.119 49.5682 323.097 50.5909 322.369 51.9091C321.657 53.2273 321.301 54.7727 321.301 56.5455H315.938C315.938 53.8182 316.566 51.4242 317.824 49.3636C319.081 47.303 320.794 45.697 322.96 44.5455C325.142 43.3939 327.589 42.8182 330.301 42.8182C333.028 42.8182 335.445 43.3939 337.551 44.5455C339.657 45.697 341.309 47.25 342.506 49.2045C343.703 51.1591 344.301 53.3333 344.301 55.7273C344.301 57.4394 343.991 59.1136 343.369 60.75C342.763 62.3712 341.703 64.1818 340.188 66.1818C338.688 68.1667 336.604 70.5909 333.938 73.4545L323.483 84.6364V85H345.119V90H315.756ZM352.415 80.4545V75.8182L372.869 43.4545H376.233V50.6364H373.96L358.506 75.0909V75.4545H386.051V80.4545H352.415ZM374.324 90V79.0455V76.8864V43.4545H379.688V90H374.324Z" fill="#848484"/>
</g>
<defs>
<clipPath id="clip0_126_2">
<rect width="390" height="90" fill="white"/>
</clipPath>
</defs>
</svg>
