<svg width="390" height="84" viewBox="0 0 390 84" fill="none" xmlns="http://www.w3.org/2000/svg">
<g clip-path="url(#clip0_128_8)">
<path d="M25.0612 14.49L25.2999 28.98H25.7772C29.1187 20.79 37.4725 14.07 49.645 14.07C65.3978 14.07 70.1714 21 70.1714 34.23V60.27C70.1714 68.25 70.6487 76.44 72.7968 82.53H47.2583C49.4064 76.65 49.645 69.51 49.645 60.9V36.12C49.645 30.03 47.0196 27.3 39.3819 27.3C33.6536 27.3 29.3574 28.77 26.0159 31.29V61.11C26.0159 69.72 26.2546 76.86 28.4027 82.74H3.10282C5.4896 76.65 5.72827 68.25 5.72827 60.48V36.12C5.72827 29.61 3.10282 23.73 0 20.79L25.0612 14.49ZM116.714 69.72V45.36C115.043 47.46 113.133 48.72 107.644 50.82C100.483 53.97 97.858 57.33 97.858 64.26C97.858 70.14 101.677 73.92 107.405 73.92C113.133 74.13 115.043 72.24 116.714 69.72ZM110.031 14.28C129.602 14.28 137.001 21.21 137.001 35.28V64.68C137.001 69.93 139.388 71.61 144.162 71.61C144.878 71.61 147.503 71.19 148.219 70.56C147.742 72.66 147.503 73.71 147.026 74.76C144.639 80.64 140.581 84 132.466 84C122.681 84 117.907 77.91 117.668 71.82H117.43C114.088 80.43 107.882 84 97.858 84C85.6854 84 77.8091 77.49 77.8091 67.41C77.8091 56.7 88.7883 52.08 100.245 48.3C111.224 44.52 116.952 41.79 116.952 34.86V33.39C116.952 25.83 114.327 22.05 106.212 22.05C101.2 22.05 99.2901 24.15 98.3354 28.35C96.6646 34.86 93.8005 37.17 89.0269 37.17C84.7307 37.17 80.6732 34.65 80.6732 29.82C80.1958 20.58 94.9939 14.28 110.031 14.28ZM192.613 75.18C189.988 80.43 183.543 84 174.474 84C158.96 84 152.754 77.07 152.754 64.47V24.99H145.355V24.57L172.326 0L172.803 0.21V15.75H192.375L190.465 25.2H173.042V61.74C173.042 68.67 176.383 71.61 183.543 71.61C189.033 71.61 191.897 70.98 194.523 69.72C193.807 72.03 193.568 73.29 192.613 75.18ZM220.539 15.33V61.53C220.539 68.46 223.641 72.24 231.279 72.24C237.723 72.24 242.497 70.35 245.361 67.2V35.91C245.361 28.98 244.645 23.31 242.02 17.43L265.41 15.33V62.58C265.41 73.08 266.603 77.7 268.513 82.74H245.6V69.3H245.361C242.02 77.91 235.814 84 222.687 84C206.218 84 200.012 75.18 200.012 62.16V35.91C200.012 28.98 199.296 23.31 196.671 17.43L220.539 15.33ZM297.393 31.29C300.734 18.9 307.179 14.07 315.771 14.07C323.648 14.07 327.705 17.64 327.705 23.31C327.705 28.35 324.364 32.55 318.397 32.55C314.816 32.55 312.668 31.08 311.236 29.82C309.565 28.35 308.372 26.88 306.463 26.88C302.405 26.88 297.87 32.97 297.87 43.05V59.85C297.87 68.04 298.586 76.23 300.496 82.53H275.196C277.583 76.44 277.821 68.04 277.821 60.27V36.12C277.821 29.61 275.196 23.73 272.093 20.79L296.916 14.49L297.154 14.7V31.5L297.393 31.29ZM345.367 41.16L370.906 39.06C370.667 28.35 368.758 22.05 360.404 22.05C351.812 22.26 346.799 28.35 345.367 41.16ZM360.643 84C341.071 84 325.08 72.66 325.08 50.82C325.08 28.77 340.355 13.86 361.12 13.86C380.692 13.86 390 24.78 390 45.57H345.367V47.67C345.367 64.26 355.153 70.98 368.519 70.98C380.692 70.98 385.942 66.78 389.523 63.63L390 64.68C386.659 74.76 377.589 84 360.643 84Z" fill="#848484"/>
</g>
<defs>
<clipPath id="clip0_128_8">
<rect width="390" height="84" fill="white"/>
</clipPath>
</defs>
</svg>
