<svg width="600" height="600" viewBox="0 0 600 600" fill="none" xmlns="http://www.w3.org/2000/svg">
<g clip-path="url(#clip0_118_2)">
<path fill-rule="evenodd" clip-rule="evenodd" d="M285.513 -73.0858L307.821 -63.6167L315.791 -67L319.295 -58.7462L393.3 -27.3326L389.34 -18.0012H209.377L208 -21.2454L275.707 -49.9854L285.513 -73.0858ZM231.569 53.997L127 300.347V191H4.57764e-05V599.54L-36.5933 685.748L71.1945 731.501L126.165 602H127V600.032L299.358 193.981L531.765 741.498L639.557 695.743L367.151 53.997H231.569ZM127 600.032L126.165 602H4.57764e-05V599.54L127 300.347V600.032ZM62.9985 125.997C97.7916 125.997 125.997 97.7915 125.997 62.9984C125.997 28.2054 97.7916 0 62.9985 0C28.2054 0 4.57764e-05 28.2054 4.57764e-05 62.9984C4.57764e-05 97.7915 28.2054 125.997 62.9985 125.997Z" fill="#BFBFBF"/>
</g>
<defs>
<clipPath id="clip0_118_2">
<rect width="600" height="600" fill="white"/>
</clipPath>
</defs>
</svg>
