<svg width="1000" height="1000" viewBox="0 0 1000 1000" fill="none" xmlns="http://www.w3.org/2000/svg">
<g clip-path="url(#clip0_119_2)">
<path fill-rule="evenodd" clip-rule="evenodd" d="M470 30C470 13.4315 483.431 0 500 0C516.569 0 530 13.4315 530 30V123C530 139.569 516.569 153 500 153C483.431 153 470 139.569 470 123V30ZM812.202 146.447C823.621 135.028 842.135 135.028 853.554 146.447C864.972 157.865 864.972 176.379 853.554 187.798L786.358 254.994C774.939 266.413 756.425 266.413 745.006 254.994C733.588 243.575 733.588 225.061 745.006 213.642L812.202 146.447ZM0 500C0 516.569 13.4315 530 30 530H123C139.569 530 153 516.569 153 500C153 483.431 139.569 470 123 470H30C13.4315 470 -2.03558e-06 483.431 0 500ZM146.447 187.798C135.028 176.379 135.028 157.865 146.447 146.446C157.865 135.028 176.379 135.028 187.798 146.446L254.994 213.642C266.413 225.061 266.413 243.575 254.994 254.994C243.575 266.412 225.061 266.412 213.642 254.994L146.447 187.798ZM500 847C483.431 847 470 860.431 470 877V970C470 986.569 483.431 1000 500 1000C516.569 1000 530 986.569 530 970V877C530 860.431 516.569 847 500 847ZM213.642 745.006C225.061 733.587 243.575 733.587 254.994 745.006C266.412 756.425 266.412 774.939 254.994 786.357L187.798 853.553C176.379 864.972 157.865 864.972 146.447 853.553C135.028 842.134 135.028 823.621 146.447 812.202L213.642 745.006ZM847 500C847 516.569 860.431 530 877 530H970C986.569 530 1000 516.569 1000 500C1000 483.431 986.569 470 970 470H877C860.431 470 847 483.431 847 500ZM745.006 786.358C733.587 774.939 733.587 756.425 745.006 745.006C756.425 733.588 774.939 733.588 786.357 745.006L853.553 812.202C864.972 823.621 864.972 842.135 853.553 853.554C842.134 864.972 823.621 864.972 812.202 853.554L745.006 786.358ZM776.931 505.757C776.977 505.177 777 504.591 777 504C777 491.85 767.15 482 755 482C747.751 482 741.321 485.506 737.313 490.915C707.518 525.271 663.546 547 614.5 547C524.754 547 452 474.246 452 384.5C452 335.923 473.315 292.324 507.102 262.547L507.004 262.44C513.022 258.514 517 251.721 517 244C517 232.449 508.098 222.977 496.78 222.071L496.844 222.012C496.558 222.015 496.273 222.018 495.988 222.022C495.66 222.007 495.331 222 495 222C494.409 222 493.822 222.023 493.243 222.069C342.874 225.396 222 348.332 222 499.5C222 652.759 346.241 777 499.5 777C650.668 777 773.604 656.126 776.931 505.757Z" fill="#FFD25F"/>
</g>
<defs>
<clipPath id="clip0_119_2">
<rect width="1000" height="1000" fill="white"/>
</clipPath>
</defs>
</svg>
