<svg width="1000" height="1000" viewBox="0 0 1000 1000" fill="none" xmlns="http://www.w3.org/2000/svg">
<g clip-path="url(#clip0_119_2)">
<path fill-rule="evenodd" clip-rule="evenodd" d="M500 0C483.431 0 470 13.4315 470 30V123C470 139.569 483.431 153 500 153C516.569 153 530 139.569 530 123V30C530 13.4315 516.569 0 500 0ZM853.554 146.447C842.135 135.028 823.621 135.028 812.202 146.447L745.006 213.642C733.588 225.061 733.588 243.575 745.006 254.994C756.425 266.413 774.939 266.413 786.358 254.994L853.554 187.798C864.972 176.379 864.972 157.865 853.554 146.447ZM30 530C13.4315 530 0 516.569 0 500C-2.03558e-06 483.431 13.4315 470 30 470H123C139.569 470 153 483.431 153 500C153 516.569 139.569 530 123 530H30ZM146.447 146.446C135.028 157.865 135.028 176.379 146.447 187.798L213.642 254.994C225.061 266.412 243.575 266.412 254.994 254.994C266.413 243.575 266.413 225.061 254.994 213.642L187.798 146.446C176.379 135.028 157.865 135.028 146.447 146.446ZM470 877C470 860.431 483.431 847 500 847C516.569 847 530 860.431 530 877V970C530 986.569 516.569 1000 500 1000C483.431 1000 470 986.569 470 970V877ZM254.994 745.006C243.575 733.587 225.061 733.587 213.642 745.006L146.447 812.202C135.028 823.621 135.028 842.134 146.447 853.553C157.865 864.972 176.379 864.972 187.798 853.553L254.994 786.357C266.412 774.939 266.412 756.425 254.994 745.006ZM877 530C860.431 530 847 516.569 847 500C847 483.431 860.431 470 877 470H970C986.569 470 1000 483.431 1000 500C1000 516.569 986.569 530 970 530H877ZM745.006 745.006C733.587 756.425 733.587 774.939 745.006 786.358L812.202 853.554C823.621 864.972 842.134 864.972 853.553 853.554C864.972 842.135 864.972 823.621 853.553 812.202L786.357 745.006C774.939 733.588 756.425 733.588 745.006 745.006Z" fill="#878787"/>
<path fill-rule="evenodd" clip-rule="evenodd" d="M517 244C517 251.721 513.022 258.514 507.004 262.44L507.102 262.547C473.315 292.324 452 335.923 452 384.5C452 474.246 524.754 547 614.5 547C663.546 547 707.518 525.271 737.313 490.915C741.321 485.506 747.751 482 755 482C767.15 482 777 491.85 777 504C777 504.591 776.977 505.177 776.931 505.757C773.604 656.126 650.668 777 499.5 777C346.241 777 222 652.759 222 499.5C222 348.332 342.874 225.396 493.243 222.069C493.822 222.023 494.409 222 495 222C495.331 222 495.66 222.007 495.988 222.022C496.273 222.018 496.558 222.015 496.844 222.012L496.78 222.071C508.098 222.977 517 232.449 517 244Z" fill="#4F4F4F"/>
</g>
<defs>
<clipPath id="clip0_119_2">
<rect width="1000" height="1000" fill="white"/>
</clipPath>
</defs>
</svg>
