<svg width="390" height="83" viewBox="0 0 390 83" fill="none" xmlns="http://www.w3.org/2000/svg">
<path d="M64.0634 3.57355C63.3178 5.24508 57.9839 17.6951 52.1339 31.2402C46.3413 44.7854 41.4663 55.9097 41.2942 55.9097C40.6634 55.9097 23.3428 10.8361 23.1134 8.47286C22.8266 5.93675 24.0884 2.3055 25.2354 2.3055C25.5795 2.3055 25.8089 2.0173 25.8089 1.72911C25.8089 1.38328 21.2781 1.15272 13.4207 1.15272H1.03247L3.556 3.97703C6.19424 6.85897 8.20159 11.643 29.881 65.6506C33.4942 74.527 36.706 81.8472 36.9928 81.8472C37.3369 81.8472 42.8428 69.2819 49.3236 53.9499C55.8045 38.618 61.2531 26.168 61.4251 26.2833C61.5972 26.3986 66.8736 38.9062 73.1825 54.1229C79.4339 69.3972 84.8825 81.8472 85.1692 81.8472C85.5134 81.8472 91.9369 66.3423 99.5075 47.4368C107.078 28.4736 113.96 11.5277 114.821 9.68328C115.681 7.89647 117.459 5.24508 118.778 3.74647L121.187 1.15272H112.412H103.694L105.185 2.88189C107.193 5.30272 107.594 8.06939 106.505 12.0465C105.988 13.8333 101.859 24.5541 97.3281 35.909L89.0692 56.6013L84.481 45.4194C82.0148 39.3097 76.8531 26.6867 73.0678 17.4645C69.3398 8.18467 66.0707 0.576332 65.7839 0.576332C65.5545 0.576332 64.7516 1.95966 64.0634 3.57355Z" fill="#848484" fill-opacity="0.8"/>
<path d="M130.191 14.8707C130.191 15.1589 130.708 15.8505 131.396 16.4846C134.493 19.3089 134.493 19.1936 134.665 45.2464C134.894 71.9908 134.665 74.354 131.855 77.1783C130.937 78.1005 130.191 79.0228 130.191 79.1957C130.191 79.3686 135.296 79.5415 141.49 79.5415H152.788L151.011 77.6394C149.978 76.6596 148.888 75.0457 148.602 74.1811C148.2 73.1436 147.971 63.6908 147.971 47.0908C147.971 23.2859 148.086 21.4415 149.061 19.1936C149.691 17.8679 150.724 16.4269 151.355 16.0235C152.043 15.62 152.559 15.1012 152.559 14.8707C152.559 14.5825 147.512 14.4096 141.375 14.4096C135.238 14.4096 130.191 14.6401 130.191 14.8707Z" fill="#848484" fill-opacity="0.8"/>
<path d="M174.927 14.8707C174.927 15.1012 175.443 15.62 176.131 16.0235C176.762 16.4269 177.794 17.8679 178.425 19.1936C179.4 21.4415 179.515 23.2859 179.515 46.6873C179.515 61.4429 179.286 72.5672 178.941 73.72C178.655 74.8151 177.565 76.6019 176.533 77.6394L174.697 79.5415H233.886L235.434 72.8554C236.294 69.2241 236.811 66.054 236.581 65.8234C236.409 65.5929 235.377 66.3998 234.402 67.495C229.469 73.1436 226.774 73.7776 207.79 73.7776H192.706V47.9554C192.706 24.1505 192.821 22.0179 193.796 19.8276C194.369 18.5596 195.516 16.9457 196.377 16.3116C197.18 15.62 197.868 14.9283 197.868 14.7554C197.868 14.5825 192.706 14.4096 186.397 14.4096C180.088 14.4096 174.927 14.5825 174.927 14.8707Z" fill="#848484" fill-opacity="0.8"/>
<path d="M246.446 14.7554C246.274 14.986 246.733 15.6776 247.593 16.3116C250.575 18.6748 250.633 19.2512 250.633 46.9179C250.633 63.5755 250.403 73.1436 250.002 74.1811C249.715 75.0457 248.625 76.6596 247.593 77.6394L245.815 79.5415H276.843C305.921 79.5415 307.928 79.4839 308.215 78.504C308.846 76.3714 310.337 66.688 310.05 66.4575C309.878 66.2846 308.444 67.3221 306.781 68.8207C301.791 73.3165 299.44 73.7776 280.112 73.7776H263.824V47.7248L276.327 47.9554C289.518 48.1859 291.525 48.5894 293.877 51.2408C294.508 51.8748 295.196 52.4512 295.483 52.4512C295.712 52.4512 295.941 49.2234 295.941 45.2464C295.941 41.2693 295.769 38.0415 295.597 38.0415C295.425 38.0415 294.45 38.6755 293.475 39.4248C290.493 41.6728 287.797 42.0762 275.466 42.0762H263.824V20.1734H277.187C295.368 20.1734 299.555 20.9804 303.627 25.3033C306.552 28.4158 306.666 28.0123 305.29 17.1186L304.946 14.4096H275.868C259.924 14.4096 246.618 14.5825 246.446 14.7554Z" fill="#848484" fill-opacity="0.8"/>
<path d="M317.162 14.9283C317.162 15.2165 317.678 15.62 318.309 15.8505C320.202 16.4846 323.987 21.2686 335.4 37.638L346.412 53.4887V63.1144C346.412 73.4894 345.953 75.5644 343.2 77.7547C342.455 78.3311 341.824 79.0228 341.824 79.1957C341.824 79.3686 347.043 79.5415 353.409 79.5415H364.994L363.216 77.6394C360.119 74.4116 359.947 73.6047 359.718 63.1144L359.488 53.3158L370.156 38.0415C381.34 22.0755 385.756 16.4846 387.706 15.8505C390.746 14.8707 388.165 14.4096 379.963 14.4096C375.088 14.4096 371.074 14.5825 371.074 14.7554C371.074 14.9283 371.59 15.7353 372.221 16.5422C373.54 18.2714 373.712 20.5769 372.565 23.2283C372.163 24.2658 368.435 29.9721 364.306 35.9089L356.793 46.745L348.878 35.1019C344.519 28.704 340.677 22.7672 340.275 21.9603C339.243 19.7123 339.415 17.5797 340.677 16.4269C341.307 15.8505 341.824 15.1589 341.824 14.8707C341.824 14.6401 336.26 14.4096 329.493 14.4096C322.266 14.4096 317.162 14.6401 317.162 14.9283Z" fill="#848484" fill-opacity="0.8"/>
</svg>
